<?xml version="1.0" encoding="UTF-8"?>
<svg width="50px" height="50px" viewBox="0 0 50 50" version="1.1" xmlns="http://www.w3.org/2000/svg" xmlns:xlink="http://www.w3.org/1999/xlink">
    <!-- Generator: Sketch 56.2 (81672) - https://sketch.com -->
    <title>functions-pause</title>
    <desc>Created with Sketch.</desc>
    <g id="Page-1" stroke="none" stroke-width="1" fill="none" fill-rule="evenodd">
        <g id="Artboard" transform="translate(-1202.000000, -1762.000000)" fill="#FFFFFF">
            <g id="Group" transform="translate(1202.000000, 1762.000000)">
                <g id="Group-5" transform="translate(11.500000, 5.500000)">
                    <path d="M3,38.625 C1.343,38.625 0,37.282 0,35.625 L0,3 C0,1.343 1.343,0 3,0 C4.657,0 6,1.343 6,3 L6,35.625 C6,37.282 4.657,38.625 3,38.625" id="Fill-1"></path>
                    <path d="M23.0767,38.625 C21.4197,38.625 20.0767,37.282 20.0767,35.625 L20.0767,3 C20.0767,1.343 21.4197,0 23.0767,0 C24.7337,0 26.0767,1.343 26.0767,3 L26.0767,35.625 C26.0767,37.282 24.7337,38.625 23.0767,38.625" id="Fill-3"></path>
                </g>
            </g>
        </g>
    </g>
</svg>