<?xml version="1.0" encoding="UTF-8"?>
<svg width="50px" height="50px" viewBox="0 0 50 50" version="1.1" xmlns="http://www.w3.org/2000/svg" xmlns:xlink="http://www.w3.org/1999/xlink">
    <!-- Generator: Sketch 56.2 (81672) - https://sketch.com -->
    <title>functions-repeat-active</title>
    <desc>Created with Sketch.</desc>
    <g id="Page-1" stroke="none" stroke-width="1" fill="none" fill-rule="evenodd">
        <g id="切圖" transform="translate(-1146.000000, -1823.000000)" fill="#FF8349">
            <g id="Group-31-Copy" transform="translate(1146.000000, 1823.000000)">
                <path d="M31.4459643,35.8820219 C32.3239643,36.8170219 33.2159643,37.7840219 34.1299643,38.7320219 C35.1289643,39.7690219 35.2409643,41.1450219 34.3889643,42.2250219 C33.6029643,43.2210219 31.9069643,43.4180219 30.9049643,42.6240219 C30.7249643,42.4810219 30.5539643,42.3220219 30.3909643,42.1590219 C28.1089643,39.8800219 25.8269643,37.5990219 23.5479643,35.3170219 C22.2649643,34.0330219 22.2709643,32.6220219 23.5639643,31.3350219 C25.8709643,29.0380219 28.1759643,26.7410219 30.4859643,24.4480219 C31.4279643,23.5140219 32.5239643,23.3200219 33.6079643,23.8760219 C34.9499643,24.5640219 35.3769643,26.4590219 34.3789643,27.5890219 C33.5079643,28.5730219 32.5479643,29.4790219 31.6209643,30.4130219 C31.5109643,30.5240219 31.3629643,30.5960219 31.2429643,30.6780219 C31.3389643,30.7850219 31.3569643,30.8210219 31.3739643,30.8210219 C32.9499643,30.8120219 34.5289643,30.8620219 36.1009643,30.7730219 C40.2379643,30.5370219 43.6149643,27.4080219 44.2559643,23.2930219 C44.9939643,18.5470219 41.8049643,14.0310219 37.1019643,13.1910219 C36.5219643,13.0870219 35.9239643,13.0470219 35.3339643,13.0460219 C28.4189643,13.0360219 21.5049643,13.0400219 14.5899643,13.0400219 C11.6039643,13.0390219 9.17996427,14.2010219 7.33596427,16.5530219 C4.83496427,19.7430219 4.97096427,24.5970219 7.63496427,27.6720219 C9.47296427,29.7920219 11.8099643,30.7980219 14.5919643,30.8310219 C15.2139643,30.8380219 15.8369643,30.8140219 16.4569643,30.8480219 C17.6209643,30.9120219 18.5289643,31.6840219 18.7819643,32.7790219 C19.0399643,33.8970219 18.5549643,35.0150219 17.5159643,35.5600219 C17.1819643,35.7360219 16.7779643,35.8540219 16.4019643,35.8640219 C14.4919643,35.9180219 12.5859643,35.8940219 10.7219643,35.3720219 C7.87596427,34.5750219 5.50796427,33.0300219 3.65396427,30.7440219 C1.21596427,27.7380219 0.165964265,24.2810219 0.592964265,20.4270219 C1.02496427,16.5470219 2.80896427,13.3860219 5.86896427,10.9560219 C8.45096427,8.9050219 11.4179643,7.9970219 14.6959643,8.0010219 C21.5239643,8.0090219 28.3509643,8.0110219 35.1789643,8 C38.9829643,7.9940219 42.3069643,9.2210219 45.0539643,11.8640219 C47.3559643,14.0780219 48.7669643,16.7790219 49.2069643,19.9630219 C49.6879643,23.4440219 48.9979643,26.6810219 47.0539643,29.6010219 C45.1419643,32.4730219 42.4949643,34.3990219 39.1649643,35.3560219 C37.6499643,35.7910219 36.0959643,35.8910219 34.5289643,35.8830219 C33.4639643,35.8780219 32.3979643,35.8820219 31.4459643,35.8820219" id="Fill-1"></path>
            </g>
        </g>
    </g>
</svg>