<?xml version="1.0" encoding="UTF-8"?>
<svg width="20px" height="20px" viewBox="0 0 20 20" version="1.1" xmlns="http://www.w3.org/2000/svg" xmlns:xlink="http://www.w3.org/1999/xlink">
    <!-- Generator: Sketch 56.2 (81672) - https://sketch.com -->
    <title>function-pause</title>
    <desc>Created with Sketch.</desc>
    <g id="Page-1" stroke="none" stroke-width="1" fill="none" fill-rule="evenodd">
        <g id="列表-展開播放" transform="translate(-689.000000, -874.000000)" fill="#FFFFFF">
            <g id="Group-14" transform="translate(111.000000, 770.000000)">
                <g id="Group-16" transform="translate(578.000000, 104.000000)">
                    <g id="Group-7" transform="translate(4.500000, 1.500000)">
                        <path d="M1.2994,16.7321 C0.5824,16.7321 0.0004,16.1501 0.0004,15.4321 L0.0004,1.2991 C0.0004,0.5821 0.5824,0.0001 1.2994,0.0001 C2.0174,0.0001 2.5994,0.5821 2.5994,1.2991 L2.5994,15.4321 C2.5994,16.1501 2.0174,16.7321 1.2994,16.7321" id="Fill-1"></path>
                        <path d="M9.9967,16.7321 C9.2787,16.7321 8.6967,16.1501 8.6967,15.4321 L8.6967,1.2991 C8.6967,0.5821 9.2787,0.0001 9.9967,0.0001 C10.7137,0.0001 11.2957,0.5821 11.2957,1.2991 L11.2957,15.4321 C11.2957,16.1501 10.7137,16.7321 9.9967,16.7321" id="Fill-4"></path>
                    </g>
                </g>
            </g>
        </g>
    </g>
</svg>