<?xml version="1.0" encoding="UTF-8"?>
<svg width="50px" height="50px" viewBox="0 0 50 50" version="1.1" xmlns="http://www.w3.org/2000/svg" xmlns:xlink="http://www.w3.org/1999/xlink">
    <!-- Generator: Sketch 56.2 (81672) - https://sketch.com -->
    <title>functions-random-active</title>
    <desc>Created with Sketch.</desc>
    <g id="Page-1" stroke="none" stroke-width="1" fill="none" fill-rule="evenodd">
        <g id="切圖" transform="translate(-904.000000, -1822.000000)">
            <g id="Group-24-Copy" transform="translate(904.000000, 1822.000000)">
                <path d="M21.6753,25.1935 C19.6613,27.4115 17.7073,29.6195 15.6913,31.7665 C13.6743,33.9155 11.1343,34.8905 8.1993,34.8765 C6.7743,34.8685 5.3473,34.8485 3.9233,34.8905 C3.5133,34.9035 3.0543,35.0265 2.7153,35.2475 C2.0923,35.6545 1.9203,36.4435 2.1713,37.1805 C2.4083,37.8795 3.0203,38.3015 3.9023,38.2995 C5.8083,38.2945 7.7173,38.3205 9.6183,38.2215 C12.1813,38.0895 14.5213,37.1955 16.5053,35.5895 C17.7643,34.5695 18.8543,33.3295 19.9703,32.1415 C21.3163,30.7085 22.6103,29.2245 23.9393,27.7505 C25.1663,29.1215 26.3663,30.4755 27.5813,31.8165 C28.7843,33.1445 29.9083,34.5515 31.3683,35.6245 C33.4413,37.1485 35.7403,38.0875 38.3243,38.2325 C39.2733,38.2855 40.2283,38.2405 41.1803,38.2405 C41.1123,38.4895 41.0233,38.5945 40.9293,38.6955 C40.0943,39.5825 39.2593,40.4675 38.4253,41.3545 C38.0703,41.7315 37.8523,42.1685 37.8963,42.6985 C37.9553,43.3995 38.3043,43.9175 38.9733,44.1525 C39.7223,44.4165 40.3923,44.2455 40.9433,43.6595 C43.0723,41.3955 45.2013,39.1315 47.3283,36.8665 C47.4123,36.7775 47.4803,36.6725 47.5643,36.5655 C47.0613,36.0295 46.5793,35.5165 46.0983,35.0025 C44.3803,33.1665 42.6663,31.3255 40.9423,29.4945 C40.1943,28.6995 39.2263,28.6525 38.4723,29.3455 C37.7673,29.9955 37.7383,30.9755 38.4233,31.7465 C38.8793,32.2615 39.3633,32.7535 39.8343,33.2565 C40.3103,33.7635 40.7843,34.2735 41.2683,34.7915 C41.1973,34.8355 41.1723,34.8645 41.1473,34.8645 C40.6193,34.8695 40.0903,34.8785 39.5623,34.8735 C36.8143,34.8495 34.3983,33.9625 32.4613,31.9865 C31.0713,30.5695 29.7663,29.0705 28.4243,27.6055 C27.6923,26.8065 26.9643,26.0055 26.2303,25.2005 C28.0003,23.2095 29.7793,21.2755 31.4793,19.2745 C33.5043,16.8915 36.0213,15.5835 39.1563,15.5035 C39.8123,15.4865 40.4693,15.5005 41.2323,15.5005 C41.0293,15.7265 40.9273,15.8475 40.8183,15.9625 C39.9933,16.8365 39.1573,17.6995 38.3453,18.5845 C37.8543,19.1195 37.6853,19.7505 37.9643,20.4505 C38.2083,21.0625 38.7103,21.3605 39.3263,21.4575 C40.0013,21.5615 40.5383,21.2655 40.9903,20.7835 C42.5483,19.1265 44.1073,17.4695 45.6663,15.8135 C46.3013,15.1395 46.9383,14.4675 47.5853,13.7835 C46.7203,12.8655 45.8853,11.9805 45.0533,11.0935 C43.6723,9.6225 42.2963,8.1455 40.9103,6.6775 C40.2853,6.0155 39.4453,5.8975 38.7373,6.3455 C37.7933,6.9435 37.6503,8.1065 38.4503,8.9925 C39.2773,9.9075 40.1423,10.7885 40.9883,11.6855 C41.0883,11.7915 41.1773,11.9075 41.3213,12.0775 C40.6333,12.0775 40.0423,12.0725 39.4503,12.0785 C35.8083,12.1165 32.6523,13.3665 30.0723,15.9495 C28.8503,17.1725 27.7143,18.4795 26.5443,19.7545 C25.6753,20.7025 24.8143,21.6585 23.9353,22.6265 C22.1113,20.5965 20.3223,18.6085 18.5353,16.6185 C16.5103,14.3645 14.0223,12.8975 11.0473,12.3295 C8.5903,11.8595 6.0943,12.1085 3.6163,12.1055 C2.9503,12.1045 2.4303,12.4945 2.1873,13.1465 C1.7413,14.3435 2.4823,15.4535 3.7793,15.4825 C5.2673,15.5155 6.7583,15.4885 8.2483,15.4945 C11.0653,15.5035 13.5573,16.3845 15.5153,18.4435 C17.6013,20.6355 19.5993,22.9115 21.6753,25.1935" id="Fill-1" fill="#FFFFFF"></path>
                <path d="M21.6753,25.1935 C19.6613,27.4115 17.7073,29.6195 15.6913,31.7665 C13.6743,33.9155 11.1343,34.8905 8.1993,34.8765 C6.7743,34.8685 5.3473,34.8485 3.9233,34.8905 C3.5133,34.9035 3.0543,35.0265 2.7153,35.2475 C2.0923,35.6545 1.9203,36.4435 2.1713,37.1805 C2.4083,37.8795 3.0203,38.3015 3.9023,38.2995 C5.8083,38.2945 7.7173,38.3205 9.6183,38.2215 C12.1813,38.0895 14.5213,37.1955 16.5053,35.5895 C17.7643,34.5695 18.8543,33.3295 19.9703,32.1415 C21.3163,30.7085 22.6103,29.2245 23.9393,27.7505 C25.1663,29.1215 26.3663,30.4755 27.5813,31.8165 C28.7843,33.1445 29.9083,34.5515 31.3683,35.6245 C33.4413,37.1485 35.7403,38.0875 38.3243,38.2325 C39.2733,38.2855 40.2283,38.2405 41.1803,38.2405 C41.1123,38.4895 41.0233,38.5945 40.9293,38.6955 C40.0943,39.5825 39.2593,40.4675 38.4253,41.3545 C38.0703,41.7315 37.8523,42.1685 37.8963,42.6985 C37.9553,43.3995 38.3043,43.9175 38.9733,44.1525 C39.7223,44.4165 40.3923,44.2455 40.9433,43.6595 C43.0723,41.3955 45.2013,39.1315 47.3283,36.8665 C47.4123,36.7775 47.4803,36.6725 47.5643,36.5655 C47.0613,36.0295 46.5793,35.5165 46.0983,35.0025 C44.3803,33.1665 42.6663,31.3255 40.9423,29.4945 C40.1943,28.6995 39.2263,28.6525 38.4723,29.3455 C37.7673,29.9955 37.7383,30.9755 38.4233,31.7465 C38.8793,32.2615 39.3633,32.7535 39.8343,33.2565 C40.3103,33.7635 40.7843,34.2735 41.2683,34.7915 C41.1973,34.8355 41.1723,34.8645 41.1473,34.8645 C40.6193,34.8695 40.0903,34.8785 39.5623,34.8735 C36.8143,34.8495 34.3983,33.9625 32.4613,31.9865 C31.0713,30.5695 29.7663,29.0705 28.4243,27.6055 C27.6923,26.8065 26.9643,26.0055 26.2303,25.2005 C28.0003,23.2095 29.7793,21.2755 31.4793,19.2745 C33.5043,16.8915 36.0213,15.5835 39.1563,15.5035 C39.8123,15.4865 40.4693,15.5005 41.2323,15.5005 C41.0293,15.7265 40.9273,15.8475 40.8183,15.9625 C39.9933,16.8365 39.1573,17.6995 38.3453,18.5845 C37.8543,19.1195 37.6853,19.7505 37.9643,20.4505 C38.2083,21.0625 38.7103,21.3605 39.3263,21.4575 C40.0013,21.5615 40.5383,21.2655 40.9903,20.7835 C42.5483,19.1265 44.1073,17.4695 45.6663,15.8135 C46.3013,15.1395 46.9383,14.4675 47.5853,13.7835 C46.7203,12.8655 45.8853,11.9805 45.0533,11.0935 C43.6723,9.6225 42.2963,8.1455 40.9103,6.6775 C40.2853,6.0155 39.4453,5.8975 38.7373,6.3455 C37.7933,6.9435 37.6503,8.1065 38.4503,8.9925 C39.2773,9.9075 40.1423,10.7885 40.9883,11.6855 C41.0883,11.7915 41.1773,11.9075 41.3213,12.0775 C40.6333,12.0775 40.0423,12.0725 39.4503,12.0785 C35.8083,12.1165 32.6523,13.3665 30.0723,15.9495 C28.8503,17.1725 27.7143,18.4795 26.5443,19.7545 C25.6753,20.7025 24.8143,21.6585 23.9353,22.6265 C22.1113,20.5965 20.3223,18.6085 18.5353,16.6185 C16.5103,14.3645 14.0223,12.8975 11.0473,12.3295 C8.5903,11.8595 6.0943,12.1085 3.6163,12.1055 C2.9503,12.1045 2.4303,12.4945 2.1873,13.1465 C1.7413,14.3435 2.4823,15.4535 3.7793,15.4825 C5.2673,15.5155 6.7583,15.4885 8.2483,15.4945 C11.0653,15.5035 13.5573,16.3845 15.5153,18.4435 C17.6013,20.6355 19.5993,22.9115 21.6753,25.1935 Z" id="Stroke-3" stroke="#FFFFFF" stroke-width="2.115" stroke-linecap="round" stroke-linejoin="round"></path>
                <path d="M21.6753,25.1935 C19.5993,22.9115 17.6013,20.6355 15.5153,18.4435 C13.5573,16.3845 11.0653,15.5035 8.2483,15.4945 C6.7583,15.4885 5.2673,15.5155 3.7793,15.4825 C2.4823,15.4535 1.7413,14.3435 2.1873,13.1465 C2.4303,12.4945 2.9503,12.1045 3.6163,12.1055 C6.0943,12.1085 8.5903,11.8595 11.0473,12.3295 C14.0223,12.8975 16.5103,14.3645 18.5353,16.6185 C20.3223,18.6085 22.1113,20.5965 23.9353,22.6265 C24.8143,21.6585 25.6753,20.7025 26.5443,19.7545 C27.7143,18.4795 28.8503,17.1725 30.0723,15.9495 C32.6523,13.3665 35.8083,12.1165 39.4503,12.0785 C40.0423,12.0725 40.6333,12.0775 41.3213,12.0775 C41.1773,11.9075 41.0883,11.7915 40.9883,11.6855 C40.1423,10.7885 39.2773,9.9075 38.4503,8.9925 C37.6503,8.1065 37.7933,6.9435 38.7373,6.3455 C39.4453,5.8975 40.2853,6.0155 40.9103,6.6775 C42.2963,8.1455 43.6723,9.6225 45.0533,11.0935 C45.8853,11.9805 46.7203,12.8655 47.5853,13.7835 C46.9383,14.4675 46.3013,15.1395 45.6663,15.8135 C44.1073,17.4695 42.5483,19.1265 40.9903,20.7835 C40.5383,21.2655 40.0013,21.5615 39.3263,21.4575 C38.7103,21.3605 38.2083,21.0625 37.9643,20.4505 C37.6853,19.7505 37.8543,19.1195 38.3453,18.5845 C39.1573,17.6995 39.9933,16.8365 40.8183,15.9625 C40.9273,15.8475 41.0293,15.7265 41.2323,15.5005 C40.4693,15.5005 39.8123,15.4865 39.1563,15.5035 C36.0213,15.5835 33.5043,16.8915 31.4793,19.2745 C29.7793,21.2755 28.0003,23.2095 26.2303,25.2005 C26.9643,26.0055 27.6923,26.8065 28.4243,27.6055 C29.7663,29.0705 31.0713,30.5695 32.4613,31.9865 C34.3983,33.9625 36.8143,34.8495 39.5623,34.8735 C40.0903,34.8785 40.6193,34.8695 41.1473,34.8645 C41.1723,34.8645 41.1973,34.8355 41.2683,34.7915 C40.7843,34.2735 40.3103,33.7635 39.8343,33.2565 C39.3633,32.7535 38.8793,32.2615 38.4233,31.7465 C37.7383,30.9755 37.7673,29.9955 38.4723,29.3455 C39.2263,28.6525 40.1943,28.6995 40.9423,29.4945 C42.6663,31.3255 44.3803,33.1665 46.0983,35.0025 C46.5793,35.5165 47.0613,36.0295 47.5643,36.5655 C47.4803,36.6725 47.4123,36.7775 47.3283,36.8665 C45.2013,39.1315 43.0723,41.3955 40.9433,43.6595 C40.3923,44.2455 39.7223,44.4165 38.9733,44.1525 C38.3043,43.9175 37.9553,43.3995 37.8963,42.6985 C37.8523,42.1685 38.0703,41.7315 38.4253,41.3545 C39.2593,40.4675 40.0943,39.5825 40.9293,38.6955 C41.0233,38.5945 41.1123,38.4895 41.1803,38.2405 C40.2283,38.2405 39.2733,38.2855 38.3243,38.2325 C35.7403,38.0875 33.4413,37.1485 31.3683,35.6245 C29.9083,34.5515 28.7843,33.1445 27.5813,31.8165 C26.3663,30.4755 25.1663,29.1215 23.9393,27.7505 C22.6103,29.2245 21.3163,30.7085 19.9703,32.1415 C18.8543,33.3295 17.7643,34.5695 16.5053,35.5895 C14.5213,37.1955 12.1813,38.0895 9.6183,38.2215 C7.7173,38.3205 5.8083,38.2945 3.9023,38.2995 C3.0203,38.3015 2.4083,37.8795 2.1713,37.1805 C1.9203,36.4435 2.0923,35.6545 2.7153,35.2475 C3.0543,35.0265 3.5133,34.9035 3.9233,34.8905 C5.3473,34.8485 6.7743,34.8685 8.1993,34.8765 C11.1343,34.8905 13.6743,33.9155 15.6913,31.7665 C17.7073,29.6195 19.6613,27.4115 21.6753,25.1935" id="Fill-5" fill="#FF8349"></path>
                <path d="M21.6753,25.1935 C19.5993,22.9115 17.6013,20.6355 15.5153,18.4435 C13.5573,16.3845 11.0653,15.5035 8.2483,15.4945 C6.7583,15.4885 5.2673,15.5155 3.7793,15.4825 C2.4823,15.4535 1.7413,14.3435 2.1873,13.1465 C2.4303,12.4945 2.9503,12.1045 3.6163,12.1055 C6.0943,12.1085 8.5903,11.8595 11.0473,12.3295 C14.0223,12.8975 16.5103,14.3645 18.5353,16.6185 C20.3223,18.6085 22.1113,20.5965 23.9353,22.6265 C24.8143,21.6585 25.6753,20.7025 26.5443,19.7545 C27.7143,18.4795 28.8503,17.1725 30.0723,15.9495 C32.6523,13.3665 35.8083,12.1165 39.4503,12.0785 C40.0423,12.0725 40.6333,12.0775 41.3213,12.0775 C41.1773,11.9075 41.0883,11.7915 40.9883,11.6855 C40.1423,10.7885 39.2773,9.9075 38.4503,8.9925 C37.6503,8.1065 37.7933,6.9435 38.7373,6.3455 C39.4453,5.8975 40.2853,6.0155 40.9103,6.6775 C42.2963,8.1455 43.6723,9.6225 45.0533,11.0935 C45.8853,11.9805 46.7203,12.8655 47.5853,13.7835 C46.9383,14.4675 46.3013,15.1395 45.6663,15.8135 C44.1073,17.4695 42.5483,19.1265 40.9903,20.7835 C40.5383,21.2655 40.0013,21.5615 39.3263,21.4575 C38.7103,21.3605 38.2083,21.0625 37.9643,20.4505 C37.6853,19.7505 37.8543,19.1195 38.3453,18.5845 C39.1573,17.6995 39.9933,16.8365 40.8183,15.9625 C40.9273,15.8475 41.0293,15.7265 41.2323,15.5005 C40.4693,15.5005 39.8123,15.4865 39.1563,15.5035 C36.0213,15.5835 33.5043,16.8915 31.4793,19.2745 C29.7793,21.2755 28.0003,23.2095 26.2303,25.2005 C26.9643,26.0055 27.6923,26.8065 28.4243,27.6055 C29.7663,29.0705 31.0713,30.5695 32.4613,31.9865 C34.3983,33.9625 36.8143,34.8495 39.5623,34.8735 C40.0903,34.8785 40.6193,34.8695 41.1473,34.8645 C41.1723,34.8645 41.1973,34.8355 41.2683,34.7915 C40.7843,34.2735 40.3103,33.7635 39.8343,33.2565 C39.3633,32.7535 38.8793,32.2615 38.4233,31.7465 C37.7383,30.9755 37.7673,29.9955 38.4723,29.3455 C39.2263,28.6525 40.1943,28.6995 40.9423,29.4945 C42.6663,31.3255 44.3803,33.1665 46.0983,35.0025 C46.5793,35.5165 47.0613,36.0295 47.5643,36.5655 C47.4803,36.6725 47.4123,36.7775 47.3283,36.8665 C45.2013,39.1315 43.0723,41.3955 40.9433,43.6595 C40.3923,44.2455 39.7223,44.4165 38.9733,44.1525 C38.3043,43.9175 37.9553,43.3995 37.8963,42.6985 C37.8523,42.1685 38.0703,41.7315 38.4253,41.3545 C39.2593,40.4675 40.0943,39.5825 40.9293,38.6955 C41.0233,38.5945 41.1123,38.4895 41.1803,38.2405 C40.2283,38.2405 39.2733,38.2855 38.3243,38.2325 C35.7403,38.0875 33.4413,37.1485 31.3683,35.6245 C29.9083,34.5515 28.7843,33.1445 27.5813,31.8165 C26.3663,30.4755 25.1663,29.1215 23.9393,27.7505 C22.6103,29.2245 21.3163,30.7085 19.9703,32.1415 C18.8543,33.3295 17.7643,34.5695 16.5053,35.5895 C14.5213,37.1955 12.1813,38.0895 9.6183,38.2215 C7.7173,38.3205 5.8083,38.2945 3.9023,38.2995 C3.0203,38.3015 2.4083,37.8795 2.1713,37.1805 C1.9203,36.4435 2.0923,35.6545 2.7153,35.2475 C3.0543,35.0265 3.5133,34.9035 3.9233,34.8905 C5.3473,34.8485 6.7743,34.8685 8.1993,34.8765 C11.1343,34.8905 13.6743,33.9155 15.6913,31.7665 C17.7073,29.6195 19.6613,27.4115 21.6753,25.1935 Z" id="Stroke-7" stroke="#FF8349" stroke-width="2.115" stroke-linecap="round" stroke-linejoin="round"></path>
            </g>
        </g>
    </g>
</svg>