<?xml version="1.0" encoding="UTF-8"?>
<svg width="50px" height="50px" viewBox="0 0 50 50" version="1.1" xmlns="http://www.w3.org/2000/svg" xmlns:xlink="http://www.w3.org/1999/xlink">
    <!-- Generator: Sketch 56.2 (81672) - https://sketch.com -->
    <title>icon-like-active</title>
    <desc>Created with Sketch.</desc>
    <g id="Page-1" stroke="none" stroke-width="1" fill="none" fill-rule="evenodd" stroke-linecap="round" stroke-linejoin="round">
        <g id="切圖" transform="translate(-964.000000, -1700.000000)" stroke="#C8C8C8" stroke-width="4">
            <g id="Group-18-Copy" transform="translate(964.000000, 1700.000000)">
                <g id="Icon" transform="translate(4.000000, 3.000000)">
                    <path d="M10.9278,29.5905 L21.6528,42.3305 C21.8448,42.5575 22.1578,42.5545 22.3468,42.3305 L33.0868,29.5735" id="Stroke-136"></path>
                    <path d="M2.9739,17.042 C2.1309,15.88 1.5239,14.54 1.2199,13.091 C1.0759,12.403 0.9999,11.691 0.9999,10.961 C0.9999,5.183 5.7449,0.5 11.5979,0.5 C16.4269,0.5 20.5009,3.688 21.7799,8.047 L22.2209,8.056 C23.4989,3.696 27.5729,0.508 32.4019,0.508 C38.2549,0.508 42.9999,5.192 42.9999,10.969 C42.9999,11.699 42.9239,12.412 42.7799,13.099 C42.4679,14.59 41.8339,15.964 40.9539,17.149" id="Stroke-138"></path>
                    <polyline id="Stroke-140" points="0.9773 23.6569 9.1373 23.5059 13.6733 16.7289 20.2093 28.4389 25.7753 23.9999 42.0003 23.9999"></polyline>
                </g>
            </g>
        </g>
    </g>
</svg>