<?xml version="1.0" encoding="UTF-8"?>
<svg width="50px" height="50px" viewBox="0 0 50 50" version="1.1" xmlns="http://www.w3.org/2000/svg" xmlns:xlink="http://www.w3.org/1999/xlink">
    <!-- Generator: Sketch 56.2 (81672) - https://sketch.com -->
    <title>icon-track</title>
    <desc>Created with Sketch.</desc>
    <g id="Page-1" stroke="none" stroke-width="1" fill="none" fill-rule="evenodd" stroke-linecap="round">
        <g id="切圖" transform="translate(-1144.000000, -1640.000000)" stroke="#494949" stroke-width="4">
            <g id="Group-21" transform="translate(1144.000000, 1640.000000)">
                <g id="Icon" transform="translate(6.000000, 13.000000)">
                    <path d="M11,2 L39,2" id="Stroke-280"></path>
                    <path d="M11,12 L39,12" id="Stroke-282"></path>
                    <path d="M11,22 L39,22" id="Stroke-284"></path>
                    <path d="M2,1.5 C2,2.052 1.552,2.5 1,2.5 C0.448,2.5 0,2.052 0,1.5 C0,0.948 0.448,0.5 1,0.5 C1.552,0.5 2,0.948 2,1.5 L2,1.5 Z" id="Stroke-286"></path>
                    <path d="M2,11.5 C2,12.052 1.552,12.5 1,12.5 C0.448,12.5 0,12.052 0,11.5 C0,10.948 0.448,10.5 1,10.5 C1.552,10.5 2,10.948 2,11.5 L2,11.5 Z" id="Stroke-288"></path>
                    <path d="M2,21.5 C2,22.052 1.552,22.5 1,22.5 C0.448,22.5 0,22.052 0,21.5 C0,20.948 0.448,20.5 1,20.5 C1.552,20.5 2,20.948 2,21.5 L2,21.5 Z" id="Stroke-290"></path>
                </g>
            </g>
        </g>
    </g>
</svg>