<?xml version="1.0" encoding="UTF-8"?>
<svg width="27px" height="27px" viewBox="0 0 27 27" version="1.1" xmlns="http://www.w3.org/2000/svg" xmlns:xlink="http://www.w3.org/1999/xlink">
    <!-- Generator: Sketch 56.2 (81672) - https://sketch.com -->
    <title>icon-heart-active</title>
    <desc>Created with Sketch.</desc>
    <g id="Page-1" stroke="none" stroke-width="1" fill="none" fill-rule="evenodd" stroke-linecap="round" stroke-linejoin="round">
        <g id="Artboard" transform="translate(-1015.000000, -1821.000000)" stroke="#C8C8C8" stroke-width="2">
            <g id="Group-18-Copy-2" transform="translate(1015.000000, 1821.000000)">
                <path d="M2.936675,12.0876224 L13.17685,23.8489201 C13.353375,24.0517392 13.642025,24.048976 13.81625,23.8489201 L24.05585,12.0876224 L23.6476,12.5905253 C24.2502,11.8660135 24.682025,10.9928413 24.87925,10.0329046 C24.958025,9.64881932 25,9.25091807 25,8.84362193 C25,5.61896391 22.401575,3.00442112 19.19595,3.00442112 C16.551525,3.00442112 14.320525,4.78392393 13.62075,7.21720058 L13.37925,7.21277946 C12.6789,4.77895016 10.4479,3 7.803475,3 C4.598425,3 2,5.61399014 2,8.83920081 C2,9.24649695 2.0414,9.64384555 2.120175,10.0279308 C2.3174,10.9878675 2.749225,11.8615924 3.3524,12.5861042" id="Stroke-1"></path>
            </g>
        </g>
    </g>
</svg>