<?xml version="1.0" encoding="UTF-8"?>
<svg width="51px" height="50px" viewBox="0 0 51 50" version="1.1" xmlns="http://www.w3.org/2000/svg" xmlns:xlink="http://www.w3.org/1999/xlink">
    <!-- Generator: Sketch 56.2 (81672) - https://sketch.com -->
    <title>icon-like</title>
    <desc>Created with Sketch.</desc>
    <g id="Page-1" stroke="none" stroke-width="1" fill="none" fill-rule="evenodd" stroke-linecap="round" stroke-linejoin="round">
        <g id="卡帶播放頁" transform="translate(-31.000000, -159.000000)" stroke="#515151" stroke-width="4">
            <g id="Group-18" transform="translate(31.000000, 159.000000)">
                <g id="Icon" transform="translate(5.911111, 5.000000)">
                    <path d="M9.08888889,28.015782 L18.7689286,39.8429907 C18.9422216,40.0537267 19.2247253,40.0509416 19.3953107,39.8429907 L29.0888889,28" id="Stroke-136"></path>
                    <path d="M1.87488889,14.9035978 C1.1121746,13.8566881 0.562984127,12.6494084 0.287936508,11.3439246 C0.157650794,10.7240675 0.0888888889,10.0825875 0.0888888889,9.42489038 C0.0888888889,4.21917232 4.38198413,0 9.67755556,0 C14.0466508,0 17.7326508,2.87224458 18.8898413,6.79950748 L19.2888413,6.80761607 C20.445127,2.87945222 24.131127,0.0072076401 28.5002222,0.0072076401 C33.7957937,0.0072076401 38.0888889,4.22728092 38.0888889,9.43209802 C38.0888889,10.0897952 38.020127,10.7321761 37.8898413,11.3511322 C37.6075556,12.6944561 37.0339365,13.9323683 36.237746,15" id="Stroke-138"></path>
                    <polyline id="Stroke-140" points="0.0888888889 21.5079419 7.44866267 21.3660974 11.539831 15 17.4348655 26 22.455025 21.8301452 37.0888889 21.8301452"></polyline>
                </g>
            </g>
        </g>
    </g>
</svg>