<?xml version="1.0" encoding="UTF-8"?>
<svg width="30px" height="30px" viewBox="0 0 30 30" version="1.1" xmlns="http://www.w3.org/2000/svg" xmlns:xlink="http://www.w3.org/1999/xlink">
    <!-- Generator: Sketch 56.2 (81672) - https://sketch.com -->
    <title>icon-sound</title>
    <desc>Created with Sketch.</desc>
    <g id="Page-1" stroke="none" stroke-width="1" fill="none" fill-rule="evenodd" stroke-linecap="round" stroke-linejoin="round">
        <g id="切圖" transform="translate(-1052.000000, -1883.000000)" stroke="#FFFFFF" stroke-width="1.865">
            <g id="Group-23" transform="translate(1052.000000, 1883.000000)">
                <g id="Group-9" transform="translate(2.000000, 4.000000)">
                    <path d="M5.4263,15.911 L1.4323,15.911 C1.1563,15.911 0.9323,15.687 0.9323,15.412 L0.9323,7.423 C0.9323,7.147 1.1563,6.924 1.4323,6.924 L5.4263,6.924 C5.7013,6.924 5.9253,7.147 5.9253,7.423 L5.9253,15.412 C5.9253,15.687 5.7013,15.911 5.4263,15.911 Z" id="Stroke-1"></path>
                    <polyline id="Stroke-3" points="6.4253 6.4784 14.4133 0.9324 14.4133 21.9024 6.4253 16.3554"></polyline>
                    <path d="M19.75,7.0614 C20.923,8.2354 21.652,9.8574 21.652,11.6504 C21.652,13.5674 20.819,15.2944 19.496,16.4834" id="Stroke-5"></path>
                    <path d="M22.8657,4.9442 C24.5827,6.6572 25.6467,9.0342 25.6467,11.6502 C25.6467,14.3962 24.4787,16.8672 22.6107,18.5992" id="Stroke-7"></path>
                </g>
            </g>
        </g>
    </g>
</svg>