<?xml version="1.0" encoding="UTF-8"?>
<svg width="50px" height="50px" viewBox="0 0 50 50" version="1.1" xmlns="http://www.w3.org/2000/svg" xmlns:xlink="http://www.w3.org/1999/xlink">
    <!-- Generator: Sketch 56.2 (81672) - https://sketch.com -->
    <title>icon-tape-active</title>
    <desc>Created with Sketch.</desc>
    <g id="Page-1" stroke="none" stroke-width="1" fill="none" fill-rule="evenodd">
        <g id="切圖" transform="translate(-1204.000000, -1700.000000)">
            <g id="Group-22" transform="translate(1204.000000, 1700.000000)">
                <g id="Group-9" transform="translate(3.000000, 8.000000)">
                    <path d="M22.0313,29.73576 C27.5003,29.73576 32.9693,29.7366 38.4383,29.7336 C40.2103,29.7326 41.2663,28.6706 41.26755,26.9006 C41.26755,19.8036 41.2683,12.7086 41.2663,5.6116 C41.2653,3.9416 40.1833,2.8446 38.5133,2.8446 C27.5383,2.8396 16.5643,2.8396 5.5893,2.8536 C5.1633,2.8546 4.7023,2.9506 4.3173,3.1306 C3.2603,3.6236 2.8533,4.5226 2.85529267,5.6656 C2.8633,12.7496 2.8593,19.8326 2.8593,26.9166 C2.8593,27.0506 2.8603,27.1856 2.8703,27.3196 C2.9433,28.2566 3.3913,28.9536 4.2113,29.4166 C4.6873,29.6846 5.2043,29.73576 5.7353,29.73576 C11.1673,29.7346 16.5993,29.73576 22.0313,29.73576 M22.0693,0.2946 C27.5373,0.2946 33.0063,0.3026 38.4743,0.289578069 C40.0993,0.2856 41.4623,0.8286 42.5433,2.0486 C43.3173,2.9216 43.7143,3.9546 43.8133,5.1086 C43.8273,5.2786 43.8253,5.4516 43.8253,5.6226 C43.8264547,12.7426 43.8273,19.8616 43.8253,26.9816 C43.8243,28.9746 42.9813,30.5216 41.2953,31.5806 C40.5713,32.0356 39.7623,32.2766 38.8943,32.2776 C37.4513,32.2796 36.0083,32.2826 34.5643,32.2826 C24.9243,32.2836 15.2843,32.2776 5.6443,32.2896072 C4.2053,32.2916 2.9593,31.8766 1.9093,30.8776 C0.9103,29.9276 0.3493,28.7626 0.3173,27.4026 C0.2663,25.2756 0.3003,23.1456 0.3003,21.0166 C0.2993,15.8306 0.2943,10.6436 0.3023,5.4566 C0.3053,2.9266 2.0723,0.8066 4.5313,0.3726 C4.9373,0.3006 5.3593,0.2986 5.7743,0.2976 C11.2063,0.2936 16.6373,0.2946 22.0693,0.2946" id="Fill-1" fill="#C8C8C8"></path>
                    <path d="M22.0313,29.73576 C27.5003,29.73576 32.9693,29.7366 38.4383,29.7336 C40.2103,29.7326 41.2663,28.6706 41.26755,26.9006 C41.26755,19.8036 41.2683,12.7086 41.2663,5.6116 C41.2653,3.9416 40.1833,2.8446 38.5133,2.8446 C27.5383,2.8396 16.5643,2.8396 5.5893,2.8536 C5.1633,2.8546 4.7023,2.9506 4.3173,3.1306 C3.2603,3.6236 2.8533,4.5226 2.85529267,5.6656 C2.8633,12.7496 2.8593,19.8326 2.8593,26.9166 C2.8593,27.0506 2.8603,27.1856 2.8703,27.3196 C2.9433,28.2566 3.3913,28.9536 4.2113,29.4166 C4.6873,29.6846 5.2043,29.73576 5.7353,29.73576 C11.1673,29.7346 16.5993,29.73576 22.0313,29.73576 Z M22.0693,0.2946 C27.5373,0.2946 33.0063,0.3026 38.4743,0.289578069 C40.0993,0.2856 41.4623,0.8286 42.5433,2.0486 C43.3173,2.9216 43.7143,3.9546 43.8133,5.1086 C43.8273,5.2786 43.8253,5.4516 43.8253,5.6226 C43.8264547,12.7426 43.8273,19.8616 43.8253,26.9816 C43.8243,28.9746 42.9813,30.5216 41.2953,31.5806 C40.5713,32.0356 39.7623,32.2766 38.8943,32.2776 C37.4513,32.2796 36.0083,32.2826 34.5643,32.2826 C24.9243,32.2836 15.2843,32.2776 5.6443,32.2896072 C4.2053,32.2916 2.9593,31.8766 1.9093,30.8776 C0.9103,29.9276 0.3493,28.7626 0.3173,27.4026 C0.2663,25.2756 0.3003,23.1456 0.3003,21.0166 C0.2993,15.8306 0.2943,10.6436 0.3023,5.4566 C0.3053,2.9266 2.0723,0.8066 4.5313,0.3726 C4.9373,0.3006 5.3593,0.2986 5.7743,0.2976 C11.2063,0.2936 16.6373,0.2946 22.0693,0.2946 Z" id="Stroke-3" stroke="#C8C8C8" stroke-width="0.579"></path>
                    <path d="M15.654313,16.2864 C15.6503,14.5194 14.2213,13.0974 12.4543,13.0983995 C10.6963,13.0983995 9.2583,14.5394 9.25929948,16.2994 C9.2603,18.0484 10.7163,19.4984 12.4663,19.4934129 C14.2253,19.4874 15.6593,18.0464 15.654313,16.2864 M28.4643,16.2504 C28.4253,17.9754 29.8423,19.4494 31.5813,19.4914 C33.3463,19.5344 34.8263,18.1114 34.8643,16.3354 C34.9013,14.6264 33.4883,13.1474 31.7753,13.1014 C29.9573,13.0534 28.5063,14.4324 28.4643,16.2504 M17.3343,19.4744 L26.7693,19.4744 C26.5513,18.9194 26.2803,18.3724 26.1193,17.7934 C25.1073,14.1634 27.8443,10.5594 31.6123,10.5384 C35.7373,10.5134 38.5933,14.7134 36.9683,18.5054 C36.0323,20.6904 34.2953,21.8724 31.9033,22.0454 C31.8053,22.0524 31.7073,22.0534 31.6093,22.0534 C25.2493,22.0534 18.8883,22.0664 12.5283,22.0464 C10.1843,22.0384 8.4373,20.9534 7.3313,18.8854 C6.2663,16.8924 6.5703,14.3194 8.0423,12.5934 C9.5883,10.7794 11.9973,10.0934 14.2533,10.8224 C17.2363,11.7864 18.8813,14.9594 17.9503,17.9884 C17.7953,18.4954 17.5453,18.9734 17.3343,19.4744" id="Fill-5" fill="#C8C8C8"></path>
                    <path d="M15.654313,16.2864 C15.6503,14.5194 14.2213,13.0974 12.4543,13.0983995 C10.6963,13.0983995 9.2583,14.5394 9.25929948,16.2994 C9.2603,18.0484 10.7163,19.4984 12.4663,19.4934129 C14.2253,19.4874 15.6593,18.0464 15.654313,16.2864 Z M28.4643,16.2504 C28.4253,17.9754 29.8423,19.4494 31.5813,19.4914 C33.3463,19.5344 34.8263,18.1114 34.8643,16.3354 C34.9013,14.6264 33.4883,13.1474 31.7753,13.1014 C29.9573,13.0534 28.5063,14.4324 28.4643,16.2504 Z M17.3343,19.4744 L26.7693,19.4744 C26.5513,18.9194 26.2803,18.3724 26.1193,17.7934 C25.1073,14.1634 27.8443,10.5594 31.6123,10.5384 C35.7373,10.5134 38.5933,14.7134 36.9683,18.5054 C36.0323,20.6904 34.2953,21.8724 31.9033,22.0454 C31.8053,22.0524 31.7073,22.0534 31.6093,22.0534 C25.2493,22.0534 18.8883,22.0664 12.5283,22.0464 C10.1843,22.0384 8.4373,20.9534 7.3313,18.8854 C6.2663,16.8924 6.5703,14.3194 8.0423,12.5934 C9.5883,10.7794 11.9973,10.0934 14.2533,10.8224 C17.2363,11.7864 18.8813,14.9594 17.9503,17.9884 C17.7953,18.4954 17.5453,18.9734 17.3343,19.4744 Z" id="Stroke-7" stroke="#C8C8C8" stroke-width="0.579"></path>
                </g>
            </g>
        </g>
    </g>
</svg>