<?xml version="1.0" encoding="UTF-8"?>
<svg width="27px" height="27px" viewBox="0 0 27 27" version="1.1" xmlns="http://www.w3.org/2000/svg" xmlns:xlink="http://www.w3.org/1999/xlink">
    <!-- Generator: Sketch 56.2 (81672) - https://sketch.com -->
    <title>icon-add-active</title>
    <desc>Created with Sketch.</desc>
    <g id="Page-1" stroke="none" stroke-width="1" fill="none" fill-rule="evenodd" stroke-linecap="round" stroke-linejoin="round">
        <g id="Artboard" transform="translate(-978.000000, -1821.000000)" stroke="#C8C8C8" stroke-width="2">
            <g id="Group-17-Copy-2" transform="translate(978.000000, 1821.000000)">
                <g id="Icon" transform="translate(3.000000, 3.000000)">
                    <path d="M21,20.4473684 C21,20.7524211 20.7524211,21 20.4473684,21 L0.552631579,21 C0.247578947,21 -5.68434189e-14,20.7524211 -5.68434189e-14,20.4473684 L-5.68434189e-14,0.552631579 C-5.68434189e-14,0.247578947 0.247578947,0 0.552631579,0 L20.4473684,0 C20.7524211,0 21,0.247578947 21,0.552631579 L21,20.4473684 L21,20.4473684 Z" id="Stroke-252"></path>
                    <polyline id="Stroke-254" points="10.5 16 10.5 6 10.5 11.1515152"></polyline>
                    <polyline id="Stroke-256" points="6 11 15 11 10.5 11"></polyline>
                </g>
            </g>
        </g>
    </g>
</svg>