<?xml version="1.0" encoding="UTF-8"?>
<svg width="380px" height="113px" viewBox="0 0 380 113" version="1.1" xmlns="http://www.w3.org/2000/svg" xmlns:xlink="http://www.w3.org/1999/xlink">
    <!-- Generator: Sketch 56.2 (81672) - https://sketch.com -->
    <title>tape-middle</title>
    <desc>Created with Sketch.</desc>
    <g id="Page-1" stroke="none" stroke-width="1" fill="none" fill-rule="evenodd">
        <g id="Artboard" transform="translate(-904.000000, -1501.000000)">
            <g id="Group-3" transform="translate(904.000000, 1501.000000)">
                <path d="M342,62.0601399 C341.370629,65.4965035 340.06993,68.7314685 338.223776,71.5846154 L334.531469,68.6433566 L327.566434,75.6083916 L330.671329,79.5146853 C327.86014,81.4825175 324.629371,82.9132867 321.188811,83.7104895 L320.643357,78.7972028 L310.741259,78.7972028 L310.195804,84 C306.629371,83.3748252 303.314685,82.0741259 300.335664,80.1818182 L303.608392,76.1160839 L296.643357,69.1468531 L292.363636,72.5496503 C290.34965,69.6545455 288.923077,66.3398601 288.125874,62.8153846 L293.496503,62.2237762 L293.496503,52.3258741 L288,51.7342657 C288.671329,48.1678322 290.055944,44.8153846 291.986014,41.8741259 L296.13986,45.1888112 L303.146853,38.2237762 L299.79021,34.027972 C302.685315,32.0979021 305.958042,30.7132867 309.482517,30 L310.06993,35.0769231 L319.93007,35.0769231 L320.475524,30 C323.958042,30.6755245 327.230769,32.0601399 330.083916,33.9482517 L327.062937,37.7202797 L334.027972,44.7272727 L337.846154,41.6685315 C339.734266,44.4797203 341.118881,47.6643357 341.874126,51.1090909 L337.174825,51.6545455 L337.174825,61.5104895 L342,62.0601399 Z" id="Fill-4" fill="#2D2D2D"></path>
                <path d="M90,62.0601399 C89.3706294,65.5426573 88.0699301,68.7734266 86.2657343,71.6223776 L82.5314685,68.6475524 L75.5664336,75.6545455 L78.6713287,79.5566434 C75.8601399,81.5286713 72.6293706,82.951049 69.1888112,83.7524476 L68.6433566,78.8013986 L58.7832168,78.8013986 L58.1958042,84 C54.6293706,83.4167832 51.3146853,82.0741259 48.3776224,80.227972 L51.6503497,76.1538462 L44.6433566,69.1468531 L40.3636364,72.5916084 C38.3916084,69.6965035 36.9230769,66.3776224 36.1258741,62.8153846 L41.4965035,62.227972 L41.4965035,52.3636364 L36,51.7804196 C36.6713287,48.1678322 38.0559441,44.8573427 39.986014,41.8741259 L44.1818182,45.234965 L51.1468531,38.2699301 L47.7902098,34.0321678 C50.6853147,32.0979021 53.958042,30.7132867 57.4825175,30 L58.0699301,35.0811189 L67.9300699,35.0811189 L68.5174825,30 C72,30.7132867 75.2307692,32.0601399 78.0839161,33.9902098 L75.0629371,37.7664336 L82.027972,44.7272727 L85.8881119,41.6685315 C87.7762238,44.4797203 89.1188811,47.7104895 89.8741259,51.151049 L85.2167832,51.6545455 L85.2167832,61.5104895 L90,62.0601399 Z" id="Fill-6" fill="#2D2D2D"></path>
                <path d="M261,56.4979168 C261,65.1640103 257.43889,73.0426559 251.69922,78.7464453 C245.959549,84.4585676 238.041318,88 229.327073,88 L147.672927,88 C130.244438,88 116,73.8301038 116,56.4979168 C116,47.8318233 119.56111,39.9573441 125.30078,34.2493883 C131.040451,28.5455988 138.958682,25 147.672927,25 L229.327073,25 C246.755562,25 261,39.1657298 261,56.4979168" id="Fill-8" fill="#2D2D2D"></path>
                <path d="M337.377254,71.5 L333.706937,68.5833333 L326.783383,75.5 L329.869786,79.3791667 C327.07534,81.3291667 323.863812,82.75 320.443744,83.5458333 L319.901538,78.6666667 L310.058414,78.6666667 L309.516208,83.8333333 C305.971014,83.2125 302.67607,81.9166667 299.714791,80.0416667 L302.968027,76 L296.044474,69.0833333 L291.790242,72.4583333 C289.788251,69.5833333 288.370174,66.2916667 287.577719,62.7916667 L292.916362,62.2083333 L292.916362,52.375 L287.452594,51.7916667 C288.119925,48.25 289.496294,44.9166667 291.414869,42 L295.543976,45.2916667 L302.509238,38.375 L299.172585,34.2083333 C302.050448,32.2916667 305.303684,30.9166667 308.807169,30.2083333 L309.391083,35.25 L319.192499,35.25 L319.734705,30.2083333 C323.196482,30.875 326.449718,32.25 329.285872,34.125 L326.282885,37.875 L333.206439,44.8333333 L337.001881,41.7916667 C338.878748,44.5833333 340.255117,47.75 341.005863,51.1666667 L336.33455,51.7083333 L336.33455,61.5 L341.130988,62.0416667 C340.505366,65.4583333 339.212413,68.6666667 337.377254,71.5 M251.41675,79.2458333 C245.702733,84.9583333 237.819892,88.5 229.144596,88.5 L147.855404,88.5 C130.504812,88.5 116.32404,74.3333333 116.32404,57 C116.32404,48.3291667 119.869233,40.4583333 125.58325,34.75 C131.297267,29.0458333 139.180108,25.5 147.855404,25.5 L229.144596,25.5 C246.495188,25.5 260.67596,39.6625 260.67596,57 C260.67596,65.6666667 257.130767,73.5416667 251.41675,79.2458333 M85.83538,71.5833333 L82.1233544,68.6291667 L75.1998009,75.5833333 L78.2862042,79.4583333 C75.4917579,81.4166667 72.2802301,82.8333333 68.8601615,83.625 L68.3179555,78.7083333 L58.5165394,78.7083333 L57.9326253,83.875 C54.3874322,83.2916667 51.0924881,81.9583333 48.1729174,80.125 L51.4261533,76.0833333 L44.4608917,69.125 L40.20666,72.5416667 C38.2463768,69.6708333 36.7865914,66.375 35.9941365,62.8333333 L41.3327802,62.25 L41.3327802,52.4583333 L35.8690121,51.875 C36.5363425,48.2916667 37.9127116,45.0041667 39.8312866,42.0416667 L44.002102,45.375 L50.9256555,38.4583333 L47.5890032,34.2541667 C50.4668658,32.3333333 53.7201018,30.9583333 57.2235867,30.25 L57.8075008,35.2958333 L67.6089169,35.2958333 L68.1928311,30.25 C71.6546078,30.9583333 74.8661356,32.2916667 77.7022901,34.2083333 L74.699303,37.9583333 L81.6228565,44.8708333 L85.4600066,41.8333333 C87.3368735,44.625 88.6715345,47.8333333 89.4222812,51.2541667 L84.7926762,51.75 L84.7926762,61.5375 L89.5474057,62.0833333 C88.9217834,65.5416667 87.6288306,68.75 85.83538,71.5833333 M320.944242,1 L56.0557584,1 C40.5820334,1 26.5680938,7.29166667 16.4330125,17.4166667 C6.25622303,27.5416667 0,41.5458333 0,57 C0,87.9583333 25.1083084,113 56.0557584,113 L320.944242,113 C336.417967,113 350.431906,106.75 360.566987,96.625 C370.702069,86.4583333 377,72.4583333 377,57 C377,26.0833333 351.891692,1 320.944242,1" id="Fill-1" fill-opacity="0.5" fill="#FFFFFF" opacity="0.804901"></path>
            </g>
        </g>
    </g>
</svg>